<mxfile host="app.diagrams.net" modified="2022-05-06T07:54:12.390Z" agent="5.0 (Windows NT 10.0; Win64; x64) AppleWebKit/537.36 (KHTML, like Gecko) Chrome/101.0.4951.41 Safari/537.36 Edg/101.0.1210.32" etag="8OiYYXxCA4TrW_whkH-b" version="18.0.1" type="github">
  <diagram id="2TOMzhWKS7lc-mk19gsF" name="Page-1">
    <mxGraphModel dx="1159" dy="634" grid="0" gridSize="10" guides="1" tooltips="1" connect="1" arrows="1" fold="1" page="1" pageScale="1" pageWidth="827" pageHeight="1169" background="none" math="0" shadow="0">
      <root>
        <mxCell id="0" />
        <mxCell id="1" parent="0" />
        <mxCell id="M9SmznFxhMItXkXDwy1l-38" value="" style="edgeStyle=orthogonalEdgeStyle;rounded=0;orthogonalLoop=1;jettySize=auto;html=1;" parent="1" source="M9SmznFxhMItXkXDwy1l-36" target="M9SmznFxhMItXkXDwy1l-37" edge="1">
          <mxGeometry relative="1" as="geometry" />
        </mxCell>
        <mxCell id="M9SmznFxhMItXkXDwy1l-36" value="系统启动" style="rounded=1;whiteSpace=wrap;html=1;gradientColor=none;arcSize=50;" parent="1" vertex="1">
          <mxGeometry x="207" y="121" width="120" height="60" as="geometry" />
        </mxCell>
        <mxCell id="M9SmznFxhMItXkXDwy1l-45" style="edgeStyle=orthogonalEdgeStyle;rounded=0;orthogonalLoop=1;jettySize=auto;html=1;entryX=0.5;entryY=0;entryDx=0;entryDy=0;" parent="1" source="M9SmznFxhMItXkXDwy1l-37" target="M9SmznFxhMItXkXDwy1l-43" edge="1">
          <mxGeometry relative="1" as="geometry" />
        </mxCell>
        <mxCell id="M9SmznFxhMItXkXDwy1l-37" value="系统初始化" style="whiteSpace=wrap;html=1;rounded=1;gradientColor=none;arcSize=0;" parent="1" vertex="1">
          <mxGeometry x="207" y="208" width="120" height="46" as="geometry" />
        </mxCell>
        <mxCell id="M9SmznFxhMItXkXDwy1l-48" value="" style="edgeStyle=orthogonalEdgeStyle;rounded=0;orthogonalLoop=1;jettySize=auto;html=1;" parent="1" source="M9SmznFxhMItXkXDwy1l-41" target="M9SmznFxhMItXkXDwy1l-47" edge="1">
          <mxGeometry relative="1" as="geometry" />
        </mxCell>
        <mxCell id="M9SmznFxhMItXkXDwy1l-41" value="扫码触摸按键" style="whiteSpace=wrap;html=1;rounded=1;gradientColor=none;arcSize=0;" parent="1" vertex="1">
          <mxGeometry x="207" y="359" width="120" height="46" as="geometry" />
        </mxCell>
        <mxCell id="M9SmznFxhMItXkXDwy1l-46" value="" style="edgeStyle=orthogonalEdgeStyle;rounded=0;orthogonalLoop=1;jettySize=auto;html=1;" parent="1" source="M9SmznFxhMItXkXDwy1l-43" target="M9SmznFxhMItXkXDwy1l-41" edge="1">
          <mxGeometry relative="1" as="geometry" />
        </mxCell>
        <mxCell id="M9SmznFxhMItXkXDwy1l-43" value="显示主页" style="shape=parallelogram;perimeter=parallelogramPerimeter;whiteSpace=wrap;html=1;fixedSize=1;gradientColor=none;" parent="1" vertex="1">
          <mxGeometry x="206" y="282" width="122" height="45" as="geometry" />
        </mxCell>
        <mxCell id="M9SmznFxhMItXkXDwy1l-50" style="edgeStyle=orthogonalEdgeStyle;rounded=0;orthogonalLoop=1;jettySize=auto;html=1;" parent="1" source="M9SmznFxhMItXkXDwy1l-47" edge="1">
          <mxGeometry relative="1" as="geometry">
            <mxPoint x="265" y="338" as="targetPoint" />
            <Array as="points">
              <mxPoint x="137" y="472" />
              <mxPoint x="137" y="338" />
            </Array>
          </mxGeometry>
        </mxCell>
        <mxCell id="M9SmznFxhMItXkXDwy1l-52" style="edgeStyle=orthogonalEdgeStyle;rounded=0;orthogonalLoop=1;jettySize=auto;html=1;entryX=0.5;entryY=0;entryDx=0;entryDy=0;" parent="1" source="M9SmznFxhMItXkXDwy1l-47" target="M9SmznFxhMItXkXDwy1l-57" edge="1">
          <mxGeometry relative="1" as="geometry">
            <mxPoint x="267" y="560.8333129882812" as="targetPoint" />
          </mxGeometry>
        </mxCell>
        <mxCell id="M9SmznFxhMItXkXDwy1l-53" style="edgeStyle=orthogonalEdgeStyle;rounded=0;orthogonalLoop=1;jettySize=auto;html=1;entryX=0.5;entryY=0;entryDx=0;entryDy=0;" parent="1" source="M9SmznFxhMItXkXDwy1l-47" target="M9SmznFxhMItXkXDwy1l-58" edge="1">
          <mxGeometry relative="1" as="geometry">
            <mxPoint x="231" y="559" as="targetPoint" />
          </mxGeometry>
        </mxCell>
        <mxCell id="M9SmznFxhMItXkXDwy1l-54" style="edgeStyle=orthogonalEdgeStyle;rounded=0;orthogonalLoop=1;jettySize=auto;html=1;entryX=0.5;entryY=0;entryDx=0;entryDy=0;" parent="1" source="M9SmznFxhMItXkXDwy1l-47" target="M9SmznFxhMItXkXDwy1l-60" edge="1">
          <mxGeometry relative="1" as="geometry">
            <mxPoint x="306.6666564941406" y="558.8333435058594" as="targetPoint" />
          </mxGeometry>
        </mxCell>
        <mxCell id="M9SmznFxhMItXkXDwy1l-61" style="edgeStyle=orthogonalEdgeStyle;rounded=0;orthogonalLoop=1;jettySize=auto;html=1;entryX=0.5;entryY=0;entryDx=0;entryDy=0;" parent="1" source="M9SmznFxhMItXkXDwy1l-47" target="M9SmznFxhMItXkXDwy1l-56" edge="1">
          <mxGeometry relative="1" as="geometry">
            <mxPoint x="224.37929350754303" y="574.689663591056" as="targetPoint" />
          </mxGeometry>
        </mxCell>
        <mxCell id="M9SmznFxhMItXkXDwy1l-63" style="edgeStyle=orthogonalEdgeStyle;rounded=0;orthogonalLoop=1;jettySize=auto;html=1;entryX=0.5;entryY=0;entryDx=0;entryDy=0;" parent="1" source="M9SmznFxhMItXkXDwy1l-47" target="M9SmznFxhMItXkXDwy1l-59" edge="1">
          <mxGeometry relative="1" as="geometry" />
        </mxCell>
        <mxCell id="M9SmznFxhMItXkXDwy1l-79" style="edgeStyle=orthogonalEdgeStyle;rounded=0;orthogonalLoop=1;jettySize=auto;html=1;entryX=0.5;entryY=0;entryDx=0;entryDy=0;" parent="1" target="M9SmznFxhMItXkXDwy1l-77" edge="1">
          <mxGeometry relative="1" as="geometry">
            <mxPoint x="331" y="536" as="sourcePoint" />
            <mxPoint x="397" y="559" as="targetPoint" />
          </mxGeometry>
        </mxCell>
        <mxCell id="M9SmznFxhMItXkXDwy1l-47" value="识别按键" style="rhombus;whiteSpace=wrap;html=1;rounded=1;gradientColor=none;arcSize=0;" parent="1" vertex="1">
          <mxGeometry x="200" y="432" width="134" height="80" as="geometry" />
        </mxCell>
        <mxCell id="M9SmznFxhMItXkXDwy1l-51" value="否" style="text;html=1;align=center;verticalAlign=middle;resizable=0;points=[];autosize=1;strokeColor=none;fillColor=none;" parent="1" vertex="1">
          <mxGeometry x="173" y="450" width="22" height="18" as="geometry" />
        </mxCell>
        <mxCell id="M9SmznFxhMItXkXDwy1l-90" style="edgeStyle=orthogonalEdgeStyle;rounded=0;orthogonalLoop=1;jettySize=auto;html=1;startArrow=none;startFill=0;" parent="1" source="M9SmznFxhMItXkXDwy1l-55" edge="1">
          <mxGeometry relative="1" as="geometry">
            <mxPoint x="467.75" y="706.1249961853027" as="targetPoint" />
          </mxGeometry>
        </mxCell>
        <mxCell id="M9SmznFxhMItXkXDwy1l-55" value="进入队列编辑页面" style="rounded=0;whiteSpace=wrap;html=1;gradientColor=none;" parent="1" vertex="1">
          <mxGeometry x="439" y="617" width="57.5" height="69" as="geometry" />
        </mxCell>
        <mxCell id="M9SmznFxhMItXkXDwy1l-64" style="edgeStyle=orthogonalEdgeStyle;rounded=0;orthogonalLoop=1;jettySize=auto;html=1;entryX=0.5;entryY=0;entryDx=0;entryDy=0;" parent="1" source="M9SmznFxhMItXkXDwy1l-56" target="M9SmznFxhMItXkXDwy1l-55" edge="1">
          <mxGeometry relative="1" as="geometry" />
        </mxCell>
        <mxCell id="M9SmznFxhMItXkXDwy1l-56" value="添加" style="rounded=0;whiteSpace=wrap;html=1;gradientColor=none;" parent="1" vertex="1">
          <mxGeometry x="442" y="561" width="51" height="32" as="geometry" />
        </mxCell>
        <mxCell id="M9SmznFxhMItXkXDwy1l-78" style="edgeStyle=orthogonalEdgeStyle;rounded=0;orthogonalLoop=1;jettySize=auto;html=1;" parent="1" source="M9SmznFxhMItXkXDwy1l-57" edge="1">
          <mxGeometry relative="1" as="geometry">
            <mxPoint x="211" y="653" as="targetPoint" />
            <Array as="points">
              <mxPoint x="267" y="653" />
            </Array>
          </mxGeometry>
        </mxCell>
        <mxCell id="M9SmznFxhMItXkXDwy1l-57" value="删除" style="rounded=0;whiteSpace=wrap;html=1;gradientColor=none;" parent="1" vertex="1">
          <mxGeometry x="241.5" y="560.5" width="51" height="32.5" as="geometry" />
        </mxCell>
        <mxCell id="M9SmznFxhMItXkXDwy1l-66" style="edgeStyle=orthogonalEdgeStyle;rounded=0;orthogonalLoop=1;jettySize=auto;html=1;entryX=0.5;entryY=0;entryDx=0;entryDy=0;" parent="1" source="M9SmznFxhMItXkXDwy1l-58" target="M9SmznFxhMItXkXDwy1l-65" edge="1">
          <mxGeometry relative="1" as="geometry" />
        </mxCell>
        <mxCell id="M9SmznFxhMItXkXDwy1l-58" value="设置" style="rounded=0;whiteSpace=wrap;html=1;gradientColor=none;" parent="1" vertex="1">
          <mxGeometry x="514.25" y="560.25" width="51" height="32" as="geometry" />
        </mxCell>
        <mxCell id="M9SmznFxhMItXkXDwy1l-71" style="edgeStyle=orthogonalEdgeStyle;rounded=0;orthogonalLoop=1;jettySize=auto;html=1;entryX=1;entryY=0.5;entryDx=0;entryDy=0;" parent="1" source="M9SmznFxhMItXkXDwy1l-59" target="M9SmznFxhMItXkXDwy1l-70" edge="1">
          <mxGeometry relative="1" as="geometry">
            <mxPoint x="210" y="654" as="targetPoint" />
            <Array as="points">
              <mxPoint x="210" y="654" />
            </Array>
          </mxGeometry>
        </mxCell>
        <mxCell id="M9SmznFxhMItXkXDwy1l-59" value="舵机控制" style="rounded=0;whiteSpace=wrap;html=1;gradientColor=none;" parent="1" vertex="1">
          <mxGeometry x="182" y="561" width="56" height="32.5" as="geometry" />
        </mxCell>
        <mxCell id="M9SmznFxhMItXkXDwy1l-80" style="edgeStyle=orthogonalEdgeStyle;rounded=0;orthogonalLoop=1;jettySize=auto;html=1;" parent="1" edge="1">
          <mxGeometry relative="1" as="geometry">
            <mxPoint x="267" y="653" as="targetPoint" />
            <mxPoint x="330.51724137931035" y="590.9999999999999" as="sourcePoint" />
            <Array as="points">
              <mxPoint x="331" y="621" />
              <mxPoint x="331" y="651" />
            </Array>
          </mxGeometry>
        </mxCell>
        <mxCell id="M9SmznFxhMItXkXDwy1l-60" value="信息栏切页" style="rounded=0;whiteSpace=wrap;html=1;gradientColor=none;" parent="1" vertex="1">
          <mxGeometry x="296" y="560.25" width="69" height="32.75" as="geometry" />
        </mxCell>
        <mxCell id="M9SmznFxhMItXkXDwy1l-92" style="edgeStyle=orthogonalEdgeStyle;rounded=0;orthogonalLoop=1;jettySize=auto;html=1;entryX=0.5;entryY=0;entryDx=0;entryDy=0;startArrow=none;startFill=0;" parent="1" source="M9SmznFxhMItXkXDwy1l-65" target="M9SmznFxhMItXkXDwy1l-91" edge="1">
          <mxGeometry relative="1" as="geometry" />
        </mxCell>
        <mxCell id="M9SmznFxhMItXkXDwy1l-65" value="进入系统设置页面" style="rounded=0;whiteSpace=wrap;html=1;gradientColor=none;" parent="1" vertex="1">
          <mxGeometry x="511" y="617" width="57.5" height="69" as="geometry" />
        </mxCell>
        <mxCell id="M9SmznFxhMItXkXDwy1l-73" style="edgeStyle=orthogonalEdgeStyle;rounded=0;orthogonalLoop=1;jettySize=auto;html=1;" parent="1" source="M9SmznFxhMItXkXDwy1l-70" edge="1">
          <mxGeometry relative="1" as="geometry">
            <mxPoint x="138.5" y="473.20688392376076" as="targetPoint" />
          </mxGeometry>
        </mxCell>
        <mxCell id="M9SmznFxhMItXkXDwy1l-70" value="执行" style="rounded=0;whiteSpace=wrap;html=1;gradientColor=none;" parent="1" vertex="1">
          <mxGeometry x="104" y="637" width="69" height="32.75" as="geometry" />
        </mxCell>
        <mxCell id="M9SmznFxhMItXkXDwy1l-81" style="edgeStyle=orthogonalEdgeStyle;rounded=0;orthogonalLoop=1;jettySize=auto;html=1;startArrow=none;startFill=0;exitX=0.5;exitY=1;exitDx=0;exitDy=0;" parent="1" source="M9SmznFxhMItXkXDwy1l-77" edge="1">
          <mxGeometry relative="1" as="geometry">
            <mxPoint x="332" y="653" as="targetPoint" />
            <mxPoint x="396.0344827586207" y="595.75" as="sourcePoint" />
            <Array as="points">
              <mxPoint x="396" y="653" />
            </Array>
          </mxGeometry>
        </mxCell>
        <mxCell id="M9SmznFxhMItXkXDwy1l-77" value="选择队列" style="rounded=0;whiteSpace=wrap;html=1;gradientColor=none;" parent="1" vertex="1">
          <mxGeometry x="368" y="560.25" width="56" height="32.5" as="geometry" />
        </mxCell>
        <mxCell id="M9SmznFxhMItXkXDwy1l-87" style="edgeStyle=orthogonalEdgeStyle;rounded=0;orthogonalLoop=1;jettySize=auto;html=1;entryX=1;entryY=0.5;entryDx=0;entryDy=0;startArrow=none;startFill=0;" parent="1" source="M9SmznFxhMItXkXDwy1l-84" target="M9SmznFxhMItXkXDwy1l-43" edge="1">
          <mxGeometry relative="1" as="geometry" />
        </mxCell>
        <mxCell id="M9SmznFxhMItXkXDwy1l-84" value="TIM3中断&lt;br&gt;RTC显示&lt;br&gt;提醒时间比较" style="rounded=0;whiteSpace=wrap;html=1;gradientColor=none;" parent="1" vertex="1">
          <mxGeometry x="365" y="274.5" width="120" height="60" as="geometry" />
        </mxCell>
        <mxCell id="M9SmznFxhMItXkXDwy1l-95" style="edgeStyle=elbowEdgeStyle;rounded=0;orthogonalLoop=1;jettySize=auto;html=1;startArrow=none;startFill=0;elbow=vertical;" parent="1" source="M9SmznFxhMItXkXDwy1l-89" edge="1">
          <mxGeometry relative="1" as="geometry">
            <mxPoint x="590" y="726" as="targetPoint" />
            <Array as="points">
              <mxPoint x="664" y="758" />
              <mxPoint x="571" y="758" />
            </Array>
          </mxGeometry>
        </mxCell>
        <mxCell id="M9SmznFxhMItXkXDwy1l-89" value="退出" style="rounded=0;whiteSpace=wrap;html=1;gradientColor=none;" parent="1" vertex="1">
          <mxGeometry x="442" y="708" width="51" height="32" as="geometry" />
        </mxCell>
        <mxCell id="M9SmznFxhMItXkXDwy1l-94" style="edgeStyle=orthogonalEdgeStyle;rounded=0;orthogonalLoop=1;jettySize=auto;html=1;startArrow=none;startFill=0;" parent="1" source="M9SmznFxhMItXkXDwy1l-91" edge="1">
          <mxGeometry relative="1" as="geometry">
            <mxPoint x="270" y="264" as="targetPoint" />
            <Array as="points">
              <mxPoint x="590" y="724" />
              <mxPoint x="590" y="264" />
            </Array>
          </mxGeometry>
        </mxCell>
        <mxCell id="M9SmznFxhMItXkXDwy1l-91" value="退出" style="rounded=0;whiteSpace=wrap;html=1;gradientColor=none;" parent="1" vertex="1">
          <mxGeometry x="514.25" y="708" width="51" height="32" as="geometry" />
        </mxCell>
      </root>
    </mxGraphModel>
  </diagram>
</mxfile>
